#N canvas 0 25 1227 786 12;
#X obj 146 106 + 1;
#X obj 72 81 bng 15 250 50 0 empty empty empty 17 7 0 10 #fcfcfc #000000
#000000;
#X obj 72 25 tgl 15 0 empty empty empty 17 7 0 10 #fcfcfc #000000 #000000
0 1;
#X floatatom 72 132 5 0 0 0 - - - 0;
#X floatatom 72 218 5 0 0 0 - - - 0;
#X obj 72 187 + 1;
#X obj 241 297 bng 15 250 50 0 empty empty empty 17 7 0 10 #fcfcfc
#000000 #000000;
#X msg 241 339 62;
#X obj 187 424 mtof;
#X floatatom 285 443 5 0 0 0 - - - 0;
#X obj 319 298 bng 15 250 50 0 empty empty empty 17 7 0 10 #fcfcfc
#000000 #000000;
#X floatatom 345 522 5 0 0 0 - - - 0;
#X floatatom 222 525 5 0 0 0 - - - 0;
#X obj 256 681 output~;
#X floatatom 371 607 5 0 0 0 - - - 0;
#X obj 285 592 *~ 0.75;
#X obj 72 105 f;
#X obj 118 299 bng 15 250 50 0 empty empty empty 17 7 0 10 #fcfcfc
#000000 #000000;
#X obj 87 300 bng 15 250 50 0 empty empty empty 17 7 0 10 #fcfcfc #000000
#000000;
#X obj 161 299 bng 15 250 50 0 empty empty empty 17 7 0 10 #fcfcfc
#000000 #000000;
#X msg 51 341 0;
#X obj 71 157 % 8;
#X msg 87 340 50;
#X msg 161 340 56;
#X text 172 107 itterate through notes;
#X obj 125 236 sel 0 1 2 3 4 5 6 7;
#X floatatom 119 340 5 0 0 0 - - - 0;
#X obj 197 299 bng 15 250 50 0 empty empty empty 17 7 0 10 #fcfcfc
#000000 #000000;
#X floatatom 197 340 5 0 0 0 - - - 0;
#X obj 276 298 bng 15 250 50 0 empty empty empty 17 7 0 10 #fcfcfc
#000000 #000000;
#X floatatom 275 340 5 0 0 0 - - - 0;
#X obj 354 298 bng 15 250 50 0 empty empty empty 17 7 0 10 #fcfcfc
#000000 #000000;
#X floatatom 355 339 5 0 0 0 - - - 0;
#X obj 72 54 metro 300;
#X obj 222 552 osc~;
#X obj 345 549 osc~;
#X obj 285 632 hip~ 100;
#X obj 538 408 mtof;
#X floatatom 598 428 5 0 0 0 - - - 0;
#X floatatom 618 530 5 0 0 0 - - - 0;
#X floatatom 684 531 5 0 0 0 - - - 0;
#X floatatom 562 534 5 0 0 0 - - - 0;
#X obj 569 699 output~;
#X floatatom 502 551 5 0 0 0 - - - 0;
#X floatatom 670 637 5 0 20 0 - - - 0;
#X obj 581 625 *~ 0.75;
#X msg 538 370 0;
#X obj 684 477 * 2;
#X obj 563 568 osc~;
#X obj 687 578 osc~;
#X obj 621 577 osc~;
#X obj 502 588 osc~;
#X obj 582 660 lop~ 500;
#X obj 503 497 / 6;
#X obj 563 480 / 4;
#X obj 618 476 * 3;
#X msg 319 339 65;
#X text 95 157 repeat sequence;
#X obj 222 497 / 3;
#X obj 345 494 * 4;
#X text 498 12 base code from class examples;
#X connect 0 0 16 1;
#X connect 1 0 16 0;
#X connect 2 0 33 0;
#X connect 3 0 21 0;
#X connect 4 0 25 0;
#X connect 5 0 4 0;
#X connect 6 0 7 0;
#X connect 7 0 8 0;
#X connect 8 0 9 0;
#X connect 9 0 58 0;
#X connect 9 0 59 0;
#X connect 10 0 56 0;
#X connect 11 0 35 0;
#X connect 12 0 34 0;
#X connect 14 0 36 1;
#X connect 15 0 36 0;
#X connect 16 0 0 0;
#X connect 16 0 3 0;
#X connect 17 0 26 0;
#X connect 18 0 22 0;
#X connect 19 0 23 0;
#X connect 20 0 8 0;
#X connect 21 0 5 0;
#X connect 22 0 8 0;
#X connect 23 0 8 0;
#X connect 25 1 18 0;
#X connect 25 2 17 0;
#X connect 25 3 19 0;
#X connect 25 4 27 0;
#X connect 25 5 6 0;
#X connect 25 6 29 0;
#X connect 25 7 10 0;
#X connect 25 8 31 0;
#X connect 26 0 37 0;
#X connect 27 0 28 0;
#X connect 28 0 37 0;
#X connect 29 0 30 0;
#X connect 30 0 37 0;
#X connect 31 0 32 0;
#X connect 32 0 37 0;
#X connect 33 0 1 0;
#X connect 34 0 15 0;
#X connect 35 0 15 0;
#X connect 36 0 13 0;
#X connect 36 0 13 1;
#X connect 37 0 38 0;
#X connect 38 0 47 0;
#X connect 38 0 53 0;
#X connect 38 0 54 0;
#X connect 38 0 55 0;
#X connect 39 0 50 0;
#X connect 40 0 49 0;
#X connect 41 0 48 0;
#X connect 43 0 51 0;
#X connect 44 0 52 1;
#X connect 45 0 52 0;
#X connect 46 0 37 0;
#X connect 47 0 40 0;
#X connect 48 0 45 0;
#X connect 49 0 45 0;
#X connect 50 0 45 0;
#X connect 51 0 45 0;
#X connect 52 0 42 0;
#X connect 52 0 42 1;
#X connect 53 0 43 0;
#X connect 54 0 41 0;
#X connect 55 0 39 0;
#X connect 56 0 8 0;
#X connect 58 0 12 0;
#X connect 59 0 11 0;
